<svg xmlns="http://www.w3.org/2000/svg" width="31.39" height="26.23" viewBox="0 0 31.39 26.23">
  <g id="home_1_" data-name="home (1)" transform="translate(0.001 -46.994)">
    <g id="グループ_1652" data-name="グループ 1652" transform="translate(-0.001 46.994)">
      <path id="パス_6078" data-name="パス 6078" d="M75.614,120.939l-9.9,8.16a.234.234,0,0,1-.009.052.235.235,0,0,0-.009.051v8.263a1.118,1.118,0,0,0,1.1,1.1H73.41v-6.611h4.408v6.611h6.61a1.119,1.119,0,0,0,1.1-1.1V129.2a.242.242,0,0,0-.017-.1Z" transform="translate(-59.919 -113.588)" fill="none" stroke="#d6d6d6" stroke-width="2.5"/>
      <path id="パス_6079" data-name="パス 6079" d="M31.173,59.163l-4.264-3.544V47.676a.6.6,0,0,0-.623-.623H22.548a.6.6,0,0,0-.623.623v3.8L17.174,47.5a2.415,2.415,0,0,0-2.959,0l-14,11.663A.566.566,0,0,0,0,59.581a.63.63,0,0,0,.136.458L1.345,61.48a.664.664,0,0,0,.409.214.724.724,0,0,0,.467-.136L15.694,50.323,29.168,61.558a.6.6,0,0,0,.409.136h.059a.665.665,0,0,0,.409-.214l1.207-1.441a.63.63,0,0,0,.136-.458A.567.567,0,0,0,31.173,59.163Z" transform="translate(0.001 -46.994)" fill="#d6d6d6"/>
    </g>
  </g>
</svg>
