 <svg id="icon_pc" xmlns="http://www.w3.org/2000/svg" width="32.52" height="26" viewBox="0 0 32.52 26">
      <defs>
        <clipPath id="clip-path">
          <rect id="Rectangle_340" data-name="Rectangle 340" width="32.52" height="26" fill="none" />
        </clipPath>
      </defs>
      <g id="Group_372" data-name="Group 372" clipPath="url(#clip-path)">
        <path
          id="Path_281"
          data-name="Path 281"
          d="M39.4,18.685l-4.78,4.274c-.309.275-.618.167-.687-.24L33.523,20.3a8.765,8.765,0,0,0-8.259,5.354,8.768,8.768,0,0,1,7.681-8.769l-.169-1c-.069-.409.187-.613.569-.454l5.92,2.463a.437.437,0,0,1,.134.791"
          transform="translate(-15.488 -9.428)"
          fill="#fff"
        />
        <path
          id="Path_282"
          data-name="Path 282"
          d="M4.827,19.662V2.041A2.041,2.041,0,0,1,6.864,0H31.574a2.042,2.042,0,0,1,2.041,2.041V19.662A2.038,2.038,0,0,1,31.574,21.7H6.864a2.037,2.037,0,0,1-2.037-2.037M31.877,1.7H6.565V20H31.877Z"
          transform="translate(-2.959 0)"
          fill="#fff"
        />
        <path
          id="Path_283"
          data-name="Path 283"
          d="M18.2,58.924H32.52v.9a2.3,2.3,0,0,1-2.3,2.3H2.3a2.3,2.3,0,0,1-2.3-2.3v-.9H14.317v1.6H18.2Z"
          transform="translate(0 -36.125)"
          fill="#fff"
        />
      </g>
    </svg>